<?xml version="1.0" standalone="no"?>
<!DOCTYPE svg PUBLIC "-//W3C//DTD SVG 20010904//EN"
 "http://www.w3.org/TR/2001/REC-SVG-20010904/DTD/svg10.dtd">
<svg version="1.0" xmlns="http://www.w3.org/2000/svg"
 width="400.000000pt" height="400.000000pt" viewBox="0 0 400.000000 400.000000"
 preserveAspectRatio="xMidYMid meet">
<metadata>
Created by potrace 1.11, written by Peter Selinger 2001-2013
</metadata>
<g transform="translate(0.000000,400.000000) scale(0.100000,-0.100000)"
fill="#000000" stroke="none">
<path d="M1922 3010 c-126 -27 -235 -136 -266 -267 -29 -128 0 -221 120 -369
l83 -104 -67 0 c-37 0 -77 -3 -89 -6 -15 -4 -55 -66 -142 -219 -67 -118 -121
-218 -121 -224 0 -6 8 -14 18 -18 12 -6 965 -9 1085 -4 22 1 22 22 -1 64 -140
256 -227 398 -246 402 -11 3 -51 6 -88 7 l-67 3 31 35 c69 78 147 192 162 237
31 94 17 222 -32 303 -29 46 -106 113 -158 137 -59 27 -156 37 -222 23z m203
-27 c77 -28 164 -120 194 -206 27 -78 25 -173 -3 -242 -19 -43 -99 -154 -188
-258 -56 -65 -118 -171 -118 -201 0 -8 -4 -17 -8 -20 -5 -3 -9 1 -9 9 0 35
-70 150 -146 241 -162 193 -193 255 -185 378 6 87 32 149 89 211 94 102 237
136 374 88z m-282 -736 c-4 -8 -1 -8 9 1 14 11 19 9 35 -13 10 -14 28 -38 40
-53 21 -24 28 -43 24 -64 0 -5 3 -8 9 -8 16 0 31 -105 18 -132 -4 -9 -4 -19 0
-22 18 -11 30 12 36 67 5 54 48 158 67 165 5 2 9 8 9 14 0 5 8 20 18 33 16 20
25 22 106 21 74 -1 90 -4 102 -20 8 -11 14 -26 14 -33 0 -7 4 -13 9 -13 9 0
37 -60 33 -72 -1 -5 2 -8 8 -8 8 0 40 -50 40 -64 0 -2 -8 -7 -17 -9 -12 -3
-10 -5 7 -6 28 -1 68 -56 47 -65 -7 -2 -5 -5 4 -5 13 -1 22 -13 47 -63 2 -5
-42 -8 -99 -8 -56 0 -100 -2 -97 -5 3 -3 51 -6 107 -6 l101 0 15 -29 c8 -16
15 -31 15 -35 0 -3 -20 -5 -45 -5 -25 0 -45 4 -45 8 0 5 -7 17 -16 28 -15 18
-15 18 -5 -3 6 -12 11 -24 11 -27 0 -3 -210 -5 -466 -5 l-465 0 5 22 6 22 -11
-22 c-11 -22 -47 -31 -62 -17 -3 4 0 19 9 35 11 22 22 29 45 29 21 0 28 -4 23
-12 -6 -10 -4 -10 7 0 8 7 49 13 109 14 l95 2 -90 3 c-55 3 -92 8 -97 16 -6 9
-8 9 -8 0 0 -8 -13 -13 -31 -13 l-31 0 21 33 c11 17 28 49 37 70 9 20 20 37
24 37 4 0 11 11 14 25 4 14 14 34 24 44 9 10 18 24 20 31 8 32 68 120 79 116
7 -3 15 -1 18 4 3 4 32 9 65 9 44 0 59 -3 53 -12z"/>
<path d="M1930 2731 c-47 -25 -83 -94 -75 -141 16 -86 82 -137 161 -126 55 7
80 22 106 65 77 124 -63 272 -192 202z m126 -7 c69 -33 95 -125 54 -192 -50
-81 -182 -75 -226 10 -59 113 58 236 172 182z"/>
<path d="M2256 2237 c3 -10 9 -15 12 -12 3 3 0 11 -7 18 -10 9 -11 8 -5 -6z"/>
<path d="M1833 2212 c-7 -12 -8 -24 -2 -33 5 -8 9 -9 10 -4 0 6 2 20 5 33 5
27 2 28 -13 4z"/>
<path d="M1681 2201 c-8 -6 -9 -11 -3 -15 6 -3 14 -1 17 5 9 14 2 20 -14 10z"/>
<path d="M2126 2185 c4 -16 11 -37 15 -45 6 -10 7 -4 3 15 -4 17 -11 37 -15
45 -6 10 -7 4 -3 -15z"/>
<path d="M2271 2207 c-1 -11 28 -67 35 -67 2 0 0 9 -6 20 -6 11 -8 26 -4 32 4
6 3 8 -4 4 -5 -3 -13 0 -15 6 -3 7 -6 9 -6 5z"/>
<path d="M1821 2144 c0 -11 3 -14 6 -6 3 7 2 16 -1 19 -3 4 -6 -2 -5 -13z"/>
<path d="M1652 2130 c-15 -25 -15 -31 1 -24 7 2 13 13 14 24 2 25 1 25 -15 0z"/>
<path d="M2305 2120 c-3 -5 1 -10 10 -10 9 0 13 5 10 10 -3 6 -8 10 -10 10 -2
0 -7 -4 -10 -10z"/>
<path d="M1808 2113 c7 -3 16 -2 19 1 4 3 -2 6 -13 5 -11 0 -14 -3 -6 -6z"/>
<path d="M2120 2116 c0 -7 40 -14 44 -7 3 4 -6 8 -20 9 -13 1 -24 0 -24 -2z"/>
<path d="M2188 2113 c7 -3 16 -2 19 1 4 3 -2 6 -13 5 -11 0 -14 -3 -6 -6z"/>
<path d="M1806 2083 c-6 -14 -5 -15 5 -6 7 7 10 15 7 18 -3 3 -9 -2 -12 -12z"/>
<path d="M2320 2091 c0 -6 4 -13 10 -16 6 -3 7 1 4 9 -7 18 -14 21 -14 7z"/>
<path d="M1605 2044 c-19 -14 -18 -15 12 -12 25 2 30 5 21 15 -6 7 -11 13 -12
13 0 0 -10 -7 -21 -16z"/>
<path d="M1792 2045 c-11 -12 -10 -15 3 -15 8 0 15 7 15 15 0 18 -2 18 -18 0z"/>
<path d="M1710 2040 c0 -5 5 -10 11 -10 5 0 7 5 4 10 -3 6 -8 10 -11 10 -2 0
-4 -4 -4 -10z"/>
<path d="M1746 2042 c-3 -5 1 -9 9 -9 8 0 15 4 15 9 0 4 -4 8 -9 8 -6 0 -12
-4 -15 -8z"/>
<path d="M1870 2040 c0 -5 5 -10 11 -10 5 0 7 5 4 10 -3 6 -8 10 -11 10 -2 0
-4 -4 -4 -10z"/>
<path d="M1906 2041 c-3 -4 6 -7 19 -7 14 0 22 2 19 5 -8 8 -34 10 -38 2z"/>
<path d="M2036 2042 c-3 -5 1 -9 9 -9 8 0 12 4 9 9 -3 4 -7 8 -9 8 -2 0 -6 -4
-9 -8z"/>
<path d="M2070 2040 c0 -5 5 -10 10 -10 6 0 10 5 10 10 0 6 -4 10 -10 10 -5 0
-10 -4 -10 -10z"/>
<path d="M1828 2033 c6 -2 18 -2 25 0 6 3 1 5 -13 5 -14 0 -19 -2 -12 -5z"/>
<path d="M2158 2033 c6 -2 18 -2 25 0 6 3 1 5 -13 5 -14 0 -19 -2 -12 -5z"/>
<path d="M2308 2033 c7 -3 16 -2 19 1 4 3 -2 6 -13 5 -11 0 -14 -3 -6 -6z"/>
<path d="M2358 2011 c9 -16 18 -28 20 -27 5 6 -21 56 -29 56 -5 0 0 -13 9 -29z"/>
<path d="M1585 1981 c-4 -14 -11 -18 -23 -14 -14 6 -15 5 -2 -9 14 -15 16 -14
28 9 8 14 11 27 9 30 -3 2 -8 -5 -12 -16z"/>
<path d="M1782 1970 c0 -14 2 -19 5 -12 2 6 2 18 0 25 -3 6 -5 1 -5 -13z"/>
<path d="M1678 1963 c7 -3 16 -2 19 1 4 3 -2 6 -13 5 -11 0 -14 -3 -6 -6z"/>
<path d="M1838 1963 c7 -3 16 -2 19 1 4 3 -2 6 -13 5 -11 0 -14 -3 -6 -6z"/>
<path d="M2078 1963 c7 -3 16 -2 19 1 4 3 -2 6 -13 5 -11 0 -14 -3 -6 -6z"/>
<path d="M2160 1966 c0 -9 30 -14 35 -6 4 6 -3 10 -14 10 -12 0 -21 -2 -21 -4z"/>
<path d="M2378 1963 c7 -3 16 -2 19 1 4 3 -2 6 -13 5 -11 0 -14 -3 -6 -6z"/>
<path d="M2390 1944 c0 -6 7 -19 16 -30 14 -18 14 -18 3 6 -14 31 -19 36 -19
24z"/>
<path d="M1771 1924 c0 -11 3 -14 6 -6 3 7 2 16 -1 19 -3 4 -6 -2 -5 -13z"/>
<path d="M2187 1919 c4 -13 8 -18 11 -10 2 7 -1 18 -6 23 -8 8 -9 4 -5 -13z"/>
<path d="M1755 1891 c-3 -5 -1 -12 5 -16 5 -3 10 1 10 9 0 18 -6 21 -15 7z"/>
<path d="M1788 1883 c7 -3 16 -2 19 1 4 3 -2 6 -13 5 -11 0 -14 -3 -6 -6z"/>
<path d="M1908 1883 c7 -3 16 -2 19 1 4 3 -2 6 -13 5 -11 0 -14 -3 -6 -6z"/>
<path d="M1980 1881 c0 -5 9 -7 20 -4 11 3 20 7 20 9 0 2 -9 4 -20 4 -11 0
-20 -4 -20 -9z"/>
<path d="M2180 1883 c8 -3 18 -10 21 -15 3 -5 9 -3 12 6 5 12 0 16 -21 15 -16
0 -21 -3 -12 -6z"/>
<path d="M1751 1844 c0 -11 3 -14 6 -6 3 7 2 16 -1 19 -3 4 -6 -2 -5 -13z"/>
<path d="M1981 1844 c0 -11 3 -14 6 -6 3 7 2 16 -1 19 -3 4 -6 -2 -5 -13z"/>
<path d="M1122 1588 c-30 -30 -1 -91 39 -83 33 6 47 24 44 52 -4 40 -55 59
-83 31z"/>
<path d="M585 1570 c-76 -19 -134 -65 -161 -129 -24 -56 -20 -145 8 -200 62
-121 236 -156 342 -69 l37 31 -27 28 -26 28 -39 -26 c-99 -65 -222 -2 -223
115 -1 77 43 127 124 142 40 7 109 -14 124 -39 11 -18 23 -13 46 19 18 25 20
33 9 46 -35 43 -146 70 -214 54z"/>
<path d="M878 1460 c0 -3 -2 -78 -3 -167 l-1 -163 41 0 40 0 1 95 c1 109 16
143 73 159 28 8 31 13 31 49 0 38 -1 39 -27 33 -16 -4 -41 -16 -57 -28 -16
-11 -26 -17 -23 -11 11 17 -11 36 -42 37 -17 1 -32 -1 -33 -4z"/>
<path d="M1117 1455 c-1 -5 -2 -80 -2 -165 l1 -155 41 -3 41 -3 0 165 c0 120
-3 166 -11 167 -7 0 -24 2 -39 3 -15 1 -29 -3 -31 -9z"/>
<path d="M1291 1462 c-7 -2 -11 -59 -11 -168 l0 -165 41 3 42 3 -1 103 c0 92
2 106 21 128 26 30 80 35 105 11 13 -14 16 -39 17 -132 l0 -115 38 0 c20 0 37
3 38 8 1 4 2 50 3 102 3 100 13 135 45 145 55 17 78 10 97 -30 6 -11 10 -66
10 -122 l-1 -103 42 0 43 0 -3 129 c-3 143 -12 168 -69 197 -40 20 -108 13
-149 -17 l-30 -21 -24 22 c-34 32 -95 37 -144 12 -35 -19 -40 -19 -43 -5 -3
15 -41 24 -67 15z"/>
<path d="M1970 1447 c-112 -59 -120 -232 -14 -298 54 -33 143 -34 197 -1 42
27 44 35 19 62 -18 20 -19 20 -57 0 -22 -11 -48 -20 -58 -20 -27 0 -75 27 -87
50 -10 19 -6 19 117 22 l128 3 -2 48 c-2 60 -28 106 -76 133 -53 29 -113 30
-167 1z m142 -74 c10 -9 18 -23 18 -32 0 -14 -13 -17 -85 -16 -47 0 -85 2 -85
5 0 14 34 52 54 60 28 12 75 4 98 -17z"/>
<path d="M2295 1461 c-19 -6 -20 -14 -19 -166 l0 -160 41 -3 41 -3 0 98 c-1
54 2 108 6 119 8 27 59 53 92 46 36 -7 44 -37 44 -158 l0 -104 40 0 40 0 0
104 c0 96 2 107 23 132 31 35 82 38 109 5 15 -19 18 -41 18 -132 l0 -109 41 0
40 0 -2 128 c-1 142 -11 171 -65 197 -54 25 -116 15 -160 -26 -19 -18 -22 -18
-28 -4 -7 19 -65 45 -99 45 -12 0 -39 -9 -60 -19 -27 -14 -37 -15 -37 -6 0 15
-36 24 -65 16z"/>
<path d="M2965 1457 c-64 -26 -70 -33 -57 -61 13 -29 26 -32 62 -11 35 20 84
19 103 -3 33 -37 22 -47 -51 -48 -112 -2 -162 -42 -148 -119 15 -78 107 -116
186 -77 31 15 40 16 40 6 0 -9 12 -14 35 -14 l35 0 0 125 c0 133 -8 165 -47
191 -32 20 -120 27 -158 11z m125 -203 c0 -27 -44 -64 -75 -64 -32 0 -70 33
-62 54 9 22 36 31 92 32 40 0 45 -2 45 -22z"/>
<path d="M3269 1463 c-14 -3 -16 -30 -16 -228 l1 -225 41 0 41 0 -1 75 c0 41
0 75 2 75 1 0 17 -9 35 -19 68 -40 168 -6 205 69 22 44 22 134 0 177 -10 18
-38 44 -63 59 -36 21 -54 26 -90 21 -25 -2 -53 -12 -63 -21 -21 -19 -32 -21
-28 -5 2 13 -39 27 -64 22z m213 -90 c19 -17 39 -70 35 -93 -9 -47 -61 -91
-100 -84 -55 8 -91 61 -81 117 13 75 93 108 146 60z"/>
<path d="M2350 970 c0 -13 7 -20 20 -20 13 0 20 7 20 20 0 13 -7 20 -20 20
-13 0 -20 -7 -20 -20z"/>
<path d="M1231 966 c-16 -19 -10 -67 9 -76 8 -5 28 -13 45 -20 26 -10 27 -13
12 -21 -11 -6 -24 -6 -36 1 -27 14 -38 13 -45 -5 -10 -27 61 -50 102 -32 12 6
22 17 22 25 0 10 7 7 23 -10 18 -20 30 -23 65 -20 l42 4 0 52 c0 29 -5 57 -12
64 -16 16 -73 15 -87 -2 -16 -19 0 -29 32 -20 14 3 28 1 31 -5 5 -7 -5 -11
-28 -11 -22 0 -38 -6 -44 -17 -9 -15 -11 -14 -21 5 -6 11 -27 26 -46 33 -19 7
-34 18 -32 24 5 11 22 11 49 0 23 -9 37 23 17 36 -22 14 -85 10 -98 -5z m204
-116 c-3 -5 -15 -10 -26 -10 -10 0 -19 5 -19 10 0 6 12 10 26 10 14 0 23 -4
19 -10z"/>
<path d="M1717 973 c-4 -3 -7 -42 -7 -85 0 -71 2 -78 20 -78 16 0 20 7 20 30
0 26 4 30 28 31 15 1 30 1 35 0 4 0 7 8 7 19 0 16 -7 20 -35 20 -24 0 -35 5
-35 15 0 11 11 15 40 15 33 0 40 3 40 20 0 18 -7 20 -53 20 -30 0 -57 -3 -60
-7z"/>
<path d="M1500 873 c0 -56 2 -64 17 -61 13 2 18 14 19 41 1 21 7 44 12 49 19
19 38 -8 36 -51 -1 -34 3 -41 18 -41 15 0 18 8 18 54 0 65 -11 76 -73 74 l-47
-1 0 -64z"/>
<path d="M1847 932 c-2 -6 -1 -74 2 -109 2 -25 31 -14 31 11 0 35 18 78 30 71
5 -3 10 3 10 13 0 16 -7 20 -35 20 -19 0 -36 -3 -38 -6z"/>
<path d="M1947 933 c-4 -3 -7 -13 -7 -20 0 -11 8 -13 29 -8 17 3 32 2 36 -4 4
-7 -5 -11 -22 -11 -47 0 -73 -34 -50 -63 13 -17 25 -20 78 -18 l35 1 -1 56
c-1 35 -7 59 -16 65 -16 10 -73 12 -82 2z m58 -83 c-3 -5 -12 -10 -20 -10 -8
0 -17 5 -20 10 -4 6 5 10 20 10 15 0 24 -4 20 -10z"/>
<path d="M2070 874 c0 -57 2 -64 20 -64 17 0 20 7 20 44 0 27 5 46 13 49 22 8
33 -6 32 -41 -1 -40 8 -57 27 -50 18 7 17 90 -1 112 -8 10 -30 15 -62 14 l-49
0 0 -64z"/>
<path d="M2230 920 c-42 -42 -16 -107 46 -112 35 -2 54 7 54 29 0 11 -7 14
-27 10 -35 -7 -53 1 -53 23 0 28 25 43 50 30 16 -9 22 -8 27 6 13 36 -64 47
-97 14z"/>
<path d="M2350 875 c0 -58 2 -65 20 -65 18 0 20 7 20 65 0 58 -2 65 -20 65
-18 0 -20 -7 -20 -65z"/>
<path d="M2420 925 c-17 -20 -9 -48 18 -61 37 -18 38 -25 3 -22 -37 3 -54 -17
-22 -27 43 -13 61 -13 76 2 22 21 15 55 -13 69 -34 17 -40 28 -11 20 26 -6 47
13 32 28 -12 12 -71 6 -83 -9z"/>
<path d="M2541 921 c-26 -26 -27 -72 -2 -95 23 -21 74 -24 96 -6 21 18 8 32
-25 25 -19 -4 -33 -1 -44 11 -15 15 -15 18 -1 33 10 12 25 16 46 13 26 -4 30
-2 27 14 -5 29 -70 32 -97 5z"/>
<path d="M2670 920 c-39 -39 -14 -104 43 -114 36 -6 77 31 77 69 0 34 -33 65
-70 65 -17 0 -39 -9 -50 -20z m68 -19 c8 -4 12 -19 10 -32 -2 -18 -9 -24 -28
-24 -19 0 -26 6 -28 24 -3 20 11 41 28 41 3 0 11 -4 18 -9z"/>
</g>
</svg>
