<?xml version="1.0" standalone="no"?>
<!DOCTYPE svg PUBLIC "-//W3C//DTD SVG 20010904//EN"
 "http://www.w3.org/TR/2001/REC-SVG-20010904/DTD/svg10.dtd">
<svg version="1.0" xmlns="http://www.w3.org/2000/svg"
 width="260.000000pt" height="260.000000pt" viewBox="0 0 260.000000 260.000000"
 preserveAspectRatio="xMidYMid meet">
<metadata>
Created by potrace 1.11, written by Peter Selinger 2001-2013
</metadata>
<g transform="translate(0.000000,260.000000) scale(0.100000,-0.100000)"
fill="#000000" stroke="none">
<path d="M830 2128 c-20 -21 -20 -33 -20 -480 l0 -458 488 0 489 0 -1 459 c-1
437 -2 460 -20 480 -19 21 -24 21 -467 21 -448 0 -448 0 -469 -22z m545 -257
c36 -20 75 -92 75 -140 0 -23 -25 -89 -72 -188 -40 -84 -76 -153 -79 -153 -3
0 -38 68 -78 152 -68 142 -73 155 -69 205 6 65 29 100 85 129 46 23 88 22 138
-5z"/>
<path d="M1259 1779 c-10 -10 -19 -30 -19 -44 0 -30 32 -65 60 -65 22 0 60 33
60 53 0 31 -14 57 -34 64 -38 13 -47 12 -67 -8z"/>
<path d="M608 1079 c-33 -19 -15 -69 24 -69 22 0 35 45 18 65 -15 17 -19 18
-42 4z"/>
<path d="M157 1056 c-87 -31 -127 -92 -123 -189 1 -53 7 -71 30 -101 42 -56
71 -71 141 -71 49 0 69 5 98 25 42 28 42 29 23 55 -14 19 -15 19 -54 -3 -22
-12 -50 -22 -63 -22 -65 0 -125 78 -114 147 6 41 25 67 68 93 32 20 79 14 122
-14 31 -20 30 -20 48 8 15 22 14 24 -14 45 -46 34 -110 45 -162 27z"/>
<path d="M839 968 c-13 -5 -32 -17 -43 -26 -18 -16 -18 -16 -12 6 7 19 4 22
-23 22 l-31 0 0 -140 c0 -127 2 -140 18 -140 34 0 40 14 38 87 -3 92 12 129
54 138 23 5 37 3 47 -7 19 -19 21 -36 22 -136 l1 -83 27 3 c28 3 28 3 29 88 1
47 2 88 3 93 3 18 43 47 65 47 42 0 56 -34 56 -137 l0 -93 30 2 30 2 0 97 c0
114 -8 142 -50 168 -26 15 -39 17 -72 10 -22 -5 -47 -16 -55 -25 -14 -14 -18
-13 -37 4 -26 24 -65 32 -97 20z"/>
<path d="M1305 969 c-61 -17 -95 -67 -95 -142 0 -54 17 -86 59 -114 39 -26 86
-29 135 -9 42 17 53 34 34 52 -12 13 -19 12 -52 -1 -40 -17 -69 -13 -98 13
-37 32 -22 39 80 38 l97 -1 -1 43 c-1 23 -6 53 -13 65 -24 44 -92 70 -146 56z
m85 -69 c36 -36 26 -45 -50 -47 -62 -1 -70 1 -70 17 0 45 84 66 120 30z"/>
<path d="M1645 972 c-11 -2 -30 -13 -42 -25 l-23 -20 0 21 c0 17 -6 22 -28 22
l-29 0 1 -137 1 -138 28 -3 27 -3 0 91 c0 83 2 93 25 115 29 30 56 32 80 5 15
-16 18 -38 19 -113 1 -91 1 -92 26 -92 24 0 25 2 26 76 1 92 16 135 51 144 57
14 76 -11 79 -107 4 -130 1 -120 31 -116 l28 3 -1 80 c-1 120 -9 160 -40 180
-37 24 -90 22 -127 -5 -28 -21 -31 -22 -42 -6 -15 19 -61 34 -90 28z"/>
<path d="M2076 965 c-21 -7 -43 -18 -48 -23 -14 -14 2 -44 21 -39 9 3 31 10
49 16 30 9 37 7 58 -15 14 -13 23 -28 20 -33 -3 -5 -30 -8 -60 -8 -41 0 -63
-6 -86 -23 -30 -21 -32 -27 -27 -66 2 -24 12 -50 21 -59 25 -25 90 -31 121
-11 23 15 26 15 31 1 3 -8 17 -15 30 -15 24 0 24 1 24 105 0 57 -5 115 -11
128 -20 44 -84 63 -143 42z m96 -170 c-5 -28 -37 -55 -64 -55 -10 0 -28 10
-40 22 l-21 21 23 19 c14 11 38 18 65 18 40 0 42 -1 37 -25z"/>
<path d="M2414 969 c-12 -4 -25 -12 -29 -18 -9 -16 -25 -13 -25 4 0 10 -10 15
-28 15 l-29 0 1 -187 1 -187 28 -1 c27 -2 27 -1 27 62 0 67 3 71 34 48 43 -33
122 -8 156 48 22 35 26 97 10 143 -18 51 -98 92 -146 73z m64 -64 c27 -19 42
-71 30 -106 -11 -31 -59 -61 -85 -53 -65 24 -85 101 -38 149 29 29 61 32 93
10z"/>
<path d="M404 833 l1 -138 28 -3 27 -3 0 75 c0 93 11 123 52 140 24 10 32 21
34 40 1 32 -22 35 -60 5 l-26 -20 0 20 c0 16 -6 21 -28 21 l-29 0 1 -137z"/>
<path d="M599 963 c-1 -11 -1 -246 0 -258 1 -12 50 -19 52 -7 3 26 4 249 1
260 -4 13 -51 17 -53 5z"/>
<path d="M1585 600 c-4 -6 -3 -16 3 -22 6 -6 12 -6 17 2 4 6 3 16 -3 22 -6 6
-12 6 -17 -2z"/>
<path d="M698 593 c-12 -3 -18 -14 -18 -33 0 -24 6 -31 35 -41 19 -7 35 -17
35 -21 0 -15 -28 -20 -49 -9 -22 12 -38 -1 -18 -17 12 -10 39 -15 65 -13 15 1
32 40 25 58 -3 7 -20 17 -39 23 -19 6 -34 15 -34 20 0 14 32 21 45 10 10 -8
15 -8 20 1 14 21 -24 34 -67 22z"/>
<path d="M1076 581 c-2 -9 -5 -40 -5 -68 -2 -39 2 -53 12 -53 9 0 13 10 12 29
-1 25 2 29 24 27 14 0 27 4 28 9 2 6 -5 10 -15 10 -9 0 -23 4 -29 8 -24 15
-13 27 23 27 48 0 40 23 -9 25 -26 1 -38 -4 -41 -14z"/>
<path d="M818 563 c-27 -7 -22 -23 7 -23 14 0 25 -5 25 -11 0 -6 -6 -9 -14 -6
-21 8 -49 -16 -44 -39 2 -15 12 -19 43 -19 38 0 40 1 40 35 0 32 -19 72 -34
69 -3 -1 -14 -3 -23 -6z m32 -63 c0 -13 -28 -25 -38 -16 -3 4 0 11 8 16 20 13
30 12 30 0z"/>
<path d="M930 561 c-22 -6 -25 -13 -27 -55 -2 -33 1 -46 10 -43 6 2 12 19 12
38 0 27 4 34 20 34 16 0 21 -8 23 -37 2 -23 8 -38 16 -38 15 0 11 77 -6 97
-11 14 -12 14 -48 4z"/>
<path d="M1187 564 c-11 -11 -8 -104 3 -104 6 0 11 9 11 20 2 35 4 39 17 52
18 18 16 44 -2 29 -10 -9 -15 -9 -18 -1 -2 6 -7 8 -11 4z"/>
<path d="M1268 562 c-10 -2 -18 -8 -18 -13 0 -6 8 -9 18 -8 28 2 42 -1 42 -10
0 -5 -12 -8 -26 -8 -30 0 -44 -17 -37 -44 4 -14 14 -19 43 -19 43 0 47 5 42
60 -4 39 -22 51 -64 42z m42 -64 c0 -11 -29 -23 -36 -15 -3 3 -4 10 0 15 7 11
36 11 36 0z"/>
<path d="M1360 516 c0 -38 4 -56 13 -56 7 0 12 14 12 37 0 31 4 38 20 38 16 0
21 -8 23 -37 4 -53 22 -47 22 7 0 48 -22 72 -50 55 -9 -5 -19 -5 -27 2 -10 8
-13 -1 -13 -46z"/>
<path d="M1489 549 c-21 -21 -25 -59 -7 -77 18 -18 78 -16 78 3 0 11 -7 14
-23 10 -28 -7 -50 15 -41 40 5 13 14 15 35 11 22 -4 29 -2 29 9 0 8 -3 15 -7
16 -5 0 -16 2 -26 4 -10 2 -27 -5 -38 -16z"/>
<path d="M1646 558 c-25 -14 -20 -47 9 -54 14 -3 25 -11 25 -16 0 -6 -11 -7
-25 -4 -18 5 -25 2 -25 -8 0 -21 47 -26 65 -6 13 14 13 19 1 36 -8 10 -19 19
-25 19 -6 0 -10 5 -9 10 0 6 9 9 20 7 10 -2 18 1 18 6 0 14 -35 21 -54 10z"/>
<path d="M1740 553 c-48 -34 2 -120 51 -90 28 17 23 27 -10 21 -24 -5 -30 -2
-36 16 -8 25 9 41 39 37 11 -1 21 3 23 9 6 18 -44 23 -67 7z"/>
<path d="M1839 549 c-31 -31 -24 -66 18 -87 40 -21 87 42 59 79 -19 26 -55 30
-77 8z m59 -37 c4 -28 -24 -41 -44 -20 -20 20 -7 50 20 46 13 -2 22 -12 24
-26z"/>
<path d="M1584 510 c-1 -32 2 -50 10 -50 14 0 15 92 1 97 -6 2 -11 -20 -11
-47z"/>
</g>
</svg>
