<?xml version="1.0" standalone="no"?>
<!DOCTYPE svg PUBLIC "-//W3C//DTD SVG 20010904//EN"
 "http://www.w3.org/TR/2001/REC-SVG-20010904/DTD/svg10.dtd">
<svg version="1.0" xmlns="http://www.w3.org/2000/svg"
 width="316.000000pt" height="316.000000pt" viewBox="0 0 316.000000 316.000000"
 preserveAspectRatio="xMidYMid meet">
<metadata>
Created by potrace 1.11, written by Peter Selinger 2001-2013
</metadata>
<g transform="translate(0.000000,316.000000) scale(0.100000,-0.100000)"
fill="#000000" stroke="none">
<path d="M1397 3125 c-339 -64 -629 -329 -733 -670 -25 -82 -28 -104 -28 -260
-1 -191 15 -274 78 -409 50 -106 769 -1196 807 -1223 41 -29 87 -29 128 0 20
14 122 162 278 402 135 209 248 387 250 395 2 9 -57 76 -151 169 l-155 154
-58 -26 c-78 -35 -133 -46 -223 -47 -145 0 -271 52 -374 156 -161 160 -201
396 -104 602 34 72 126 176 197 221 145 94 350 105 511 29 80 -38 205 -159
244 -235 72 -143 74 -340 5 -475 l-21 -41 140 -140 140 -139 42 61 c57 85 105
190 131 286 27 101 37 305 19 412 -58 360 -339 669 -695 763 -106 29 -317 36
-428 15z"/>
<path d="M1590 2324 l0 -169 -115 115 c-133 133 -130 132 -185 25 -32 -63 -35
-75 -35 -154 1 -66 6 -97 22 -133 30 -66 105 -143 172 -175 49 -24 68 -28 146
-28 78 0 97 4 147 28 74 36 150 119 175 189 11 33 18 81 18 129 0 65 -5 85
-33 142 -51 103 -151 176 -264 192 l-48 7 0 -168z"/>
<path d="M175 215 c-19 -18 -25 -35 -25 -65 0 -53 12 -74 50 -90 38 -16 82 0
98 36 11 22 9 24 -12 24 -13 0 -26 -7 -30 -15 -9 -24 -45 -18 -58 10 -16 35 0
79 30 83 13 2 25 -3 28 -12 7 -18 54 -22 54 -6 0 23 -50 60 -80 60 -19 0 -40
-9 -55 -25z"/>
<path d="M420 220 c0 -13 7 -20 20 -20 13 0 20 7 20 20 0 13 -7 20 -20 20 -13
0 -20 -7 -20 -20z"/>
<path d="M1407 222 c-36 -39 -12 -80 56 -96 35 -8 36 -36 2 -36 -14 0 -28 7
-31 15 -9 22 -44 19 -44 -4 0 -24 19 -39 58 -47 44 -9 82 17 82 55 0 34 -13
46 -59 58 -42 11 -53 33 -17 33 13 0 28 -4 31 -10 3 -5 15 -10 26 -10 24 0 24
15 -1 40 -26 26 -81 26 -103 2z"/>
<path d="M1900 150 c0 -83 1 -90 20 -90 16 0 20 7 20 35 0 34 1 35 40 35 33 0
40 3 40 20 0 17 -7 20 -40 20 -29 0 -40 4 -40 15 0 11 12 15 45 15 38 0 45 3
45 20 0 18 -7 20 -65 20 l-65 0 0 -90z"/>
<path d="M2550 220 c0 -13 7 -20 20 -20 13 0 20 7 20 20 0 13 -7 20 -20 20
-13 0 -20 -7 -20 -20z"/>
<path d="M2918 188 c-48 -17 -56 -96 -12 -124 46 -31 104 3 104 60 0 50 -43
80 -92 64z m48 -54 c8 -29 -7 -49 -30 -41 -16 6 -22 48 -9 60 14 15 33 6 39
-19z"/>
<path d="M320 124 c0 -57 2 -64 20 -64 15 0 20 7 20 29 0 39 9 61 26 61 8 0
14 8 14 19 0 15 -8 19 -40 19 l-40 1 0 -65z"/>
<path d="M420 125 c0 -58 2 -65 20 -65 18 0 20 7 20 65 0 58 -2 65 -20 65 -18
0 -20 -7 -20 -65z"/>
<path d="M480 124 c0 -57 2 -64 20 -64 17 0 20 7 20 44 0 46 16 69 31 45 5 -8
9 -31 9 -51 0 -31 4 -38 20 -38 17 0 20 7 20 51 0 66 24 62 28 -4 3 -39 6 -47
23 -47 16 0 19 7 19 54 0 31 -5 58 -12 64 -7 5 -50 10 -95 10 l-83 0 0 -64z"/>
<path d="M706 174 c-23 -22 -20 -80 4 -104 24 -24 48 -25 78 -4 33 23 28 37
-12 30 -19 -4 -37 -2 -40 3 -4 6 12 11 36 13 39 3 43 5 40 28 -2 14 -9 31 -14
38 -15 17 -74 15 -92 -4z m59 -24 c3 -5 -3 -10 -15 -10 -12 0 -18 5 -15 10 3
6 10 10 15 10 5 0 12 -4 15 -10z"/>
<path d="M830 124 c0 -57 2 -64 20 -64 17 0 20 7 20 44 0 46 16 69 31 45 5 -8
9 -31 9 -51 0 -31 4 -38 20 -38 17 0 20 7 20 51 0 66 24 62 28 -4 3 -39 6 -47
23 -47 16 0 19 7 19 54 0 31 -5 58 -12 64 -7 5 -50 10 -95 10 l-83 0 0 -64z"/>
<path d="M1052 178 c-15 -15 -16 -38 -2 -38 6 0 4 -11 -5 -24 -16 -24 -12 -51
9 -59 7 -3 32 -3 57 0 l44 5 -5 62 -5 61 -40 3 c-23 2 -46 -3 -53 -10z m58
-28 c0 -5 -7 -10 -15 -10 -8 0 -15 5 -15 10 0 6 7 10 15 10 8 0 15 -4 15 -10z
m0 -50 c0 -5 -7 -10 -15 -10 -8 0 -15 5 -15 10 0 6 7 10 15 10 8 0 15 -4 15
-10z"/>
<path d="M1180 100 c0 -83 1 -90 20 -90 15 0 20 7 20 26 0 20 4 24 19 19 30
-9 65 27 65 68 0 51 -18 67 -75 67 l-49 0 0 -90z m78 22 c3 -27 0 -32 -17 -32
-16 0 -21 6 -21 28 0 53 33 56 38 4z"/>
<path d="M1562 178 c-15 -15 -16 -38 -2 -38 6 0 4 -11 -5 -24 -16 -24 -12 -51
9 -59 7 -3 32 -3 57 0 l44 5 -5 62 -5 61 -40 3 c-23 2 -46 -3 -53 -10z m58
-28 c0 -5 -7 -10 -15 -10 -8 0 -15 5 -15 10 0 6 7 10 15 10 8 0 15 -4 15 -10z
m0 -50 c0 -5 -7 -10 -15 -10 -8 0 -15 5 -15 10 0 6 7 10 15 10 8 0 15 -4 15
-10z"/>
<path d="M1680 124 c0 -57 2 -64 20 -64 16 0 20 7 20 34 0 44 9 66 26 66 10 0
14 -14 14 -50 0 -47 2 -50 25 -50 22 0 25 4 25 39 0 22 -4 51 -10 65 -8 23
-14 25 -65 25 l-55 -1 0 -64z"/>
<path d="M2040 124 c0 -57 2 -64 20 -64 15 0 20 7 20 29 0 39 9 61 26 61 8 0
14 8 14 19 0 15 -8 19 -40 19 l-40 1 0 -65z"/>
<path d="M2140 171 c-14 -27 -13 -31 8 -31 16 -1 16 -1 0 -11 -10 -5 -18 -21
-18 -34 0 -31 24 -43 78 -37 l42 4 0 52 c0 29 -5 57 -12 64 -20 20 -86 15 -98
-7z m60 -21 c0 -5 -7 -10 -16 -10 -8 0 -12 5 -9 10 3 6 10 10 16 10 5 0 9 -4
9 -10z m5 -49 c-8 -13 -35 -15 -35 -2 0 5 8 11 18 13 21 5 26 2 17 -11z"/>
<path d="M2270 124 c0 -57 2 -64 20 -64 16 0 20 7 20 34 0 44 9 66 26 66 10 0
14 -14 14 -50 0 -47 2 -50 25 -50 22 0 25 4 25 39 0 22 -4 51 -10 65 -8 23
-14 25 -65 25 l-55 -1 0 -64z"/>
<path d="M2426 168 c-32 -45 -6 -118 42 -118 24 0 62 28 62 46 0 17 -37 19
-42 2 -6 -17 -38 -1 -38 19 0 10 5 25 10 33 7 12 12 12 22 2 16 -16 48 -16 48
1 0 41 -78 52 -104 15z"/>
<path d="M2550 125 c0 -58 2 -65 20 -65 18 0 20 7 20 65 0 58 -2 65 -20 65
-18 0 -20 -7 -20 -65z"/>
<path d="M2620 171 c-15 -28 -4 -47 38 -65 l37 -15 -44 5 c-50 7 -54 -10 -8
-36 50 -28 113 22 78 64 -7 9 -7 16 1 24 19 19 -10 42 -53 42 -28 0 -41 -5
-49 -19z m75 -21 c3 -5 -1 -10 -9 -10 -8 0 -18 5 -21 10 -3 6 1 10 9 10 8 0
18 -4 21 -10z"/>
<path d="M2766 174 c-40 -40 -9 -124 45 -124 20 0 59 33 59 50 0 13 -37 13
-45 0 -13 -22 -35 -10 -35 19 0 33 16 49 33 32 11 -11 47 -15 47 -5 0 3 -5 14
-10 25 -13 24 -72 26 -94 3z"/>
</g>
</svg>
